<?xml version="1.0" standalone="no"?>
<!DOCTYPE svg PUBLIC "-//W3C//DTD SVG 20010904//EN"
 "http://www.w3.org/TR/2001/REC-SVG-20010904/DTD/svg10.dtd">
<svg version="1.0" xmlns="http://www.w3.org/2000/svg"
 width="512.000000pt" height="512.000000pt" viewBox="0 0 512.000000 512.000000"
 preserveAspectRatio="xMidYMid meet">

<g transform="translate(0.000000,512.000000) scale(0.100000,-0.100000)"
fill="#000000" stroke="none">
<path d="M1882 4447 c-369 -369 -672 -675 -672 -680 0 -4 203 -7 450 -7 l450
0 0 -1280 0 -1280 450 0 450 0 0 1280 0 1280 450 0 c248 0 450 3 450 8 0 8
-1342 1352 -1350 1352 -3 0 -308 -303 -678 -673z"/>
<path d="M0 1730 l0 -1730 2560 0 2560 0 0 1730 0 1730 -905 0 -905 0 0 -450
0 -450 455 0 455 0 0 -830 0 -830 -1660 0 -1660 0 0 830 0 830 455 0 455 0 0
450 0 450 -905 0 -905 0 0 -1730z"/>
</g>
</svg>
