<?xml version="1.0" standalone="no"?>
<!DOCTYPE svg PUBLIC "-//W3C//DTD SVG 20010904//EN"
 "http://www.w3.org/TR/2001/REC-SVG-20010904/DTD/svg10.dtd">
<svg version="1.0" xmlns="http://www.w3.org/2000/svg"
 width="512.000000pt" height="512.000000pt" viewBox="0 0 512.000000 512.000000"
 preserveAspectRatio="xMidYMid meet">

<g transform="translate(0.000000,512.000000) scale(0.100000,-0.100000)"
fill="#000000" stroke="none">
<path d="M1820 4330 l0 -790 23 -4 c12 -3 62 -10 111 -16 232 -29 505 -128
724 -261 233 -143 463 -369 614 -604 150 -232 261 -546 293 -827 l6 -58 740 0
740 0 -3 573 c-3 559 -4 573 -26 638 -44 131 -145 250 -265 311 -112 56 -132
58 -834 58 l-642 0 -3 668 c-4 656 -4 668 -26 733 -44 131 -144 249 -261 308
-116 59 -137 61 -688 61 l-503 0 0 -790z"/>
<path d="M3600 4075 l0 -425 427 0 428 0 -425 425 c-234 234 -426 425 -427
425 -2 0 -3 -191 -3 -425z"/>
<path d="M1439 3225 c-538 -88 -976 -407 -1215 -884 -162 -324 -209 -697 -134
-1056 109 -522 488 -972 985 -1169 934 -369 1971 186 2184 1168 43 199 43 473
0 672 -137 633 -626 1119 -1264 1254 -131 28 -429 36 -556 15z m446 -375 c33
-6 108 -25 168 -42 l107 -31 0 -334 0 -333 333 0 334 0 31 -102 c50 -164 57
-211 57 -388 0 -178 -11 -251 -62 -402 l-28 -83 -332 -3 -333 -2 -2 -332 -3
-332 -90 -28 c-134 -42 -245 -59 -390 -59 -146 0 -262 18 -392 59 l-88 28 -3
332 -2 332 -333 0 -333 0 -32 101 c-50 158 -65 270 -59 439 6 146 16 205 63
358 l25 82 334 0 335 0 0 333 0 333 88 27 c172 52 281 68 437 61 61 -2 137 -9
170 -14z"/>
<path d="M1585 2564 c-16 -2 -45 -7 -62 -10 l-33 -5 0 -369 0 -370 -370 0
c-344 0 -371 -1 -378 -17 -9 -23 -9 -323 0 -345 7 -17 34 -18 378 -18 l370 0
0 -369 0 -369 50 -7 c28 -4 89 -7 135 -7 46 0 107 3 135 7 l50 7 0 369 0 369
370 0 370 0 7 28 c10 35 10 289 0 325 l-7 27 -370 0 -370 0 0 369 0 369 -24 6
c-32 8 -214 15 -251 10z"/>
<path d="M3585 1423 c-26 -221 -91 -445 -180 -632 -30 -62 -55 -115 -55 -117
0 -2 386 -3 858 -2 l857 3 3 398 2 397 -739 0 -740 0 -6 -47z"/>
</g>
</svg>
