<?xml version="1.0" standalone="no"?>
<!DOCTYPE svg PUBLIC "-//W3C//DTD SVG 20010904//EN"
 "http://www.w3.org/TR/2001/REC-SVG-20010904/DTD/svg10.dtd">
<svg version="1.0" xmlns="http://www.w3.org/2000/svg"
 width="512.000000pt" height="512.000000pt" viewBox="0 0 512.000000 512.000000"
 preserveAspectRatio="xMidYMid meet">

<g transform="translate(0.000000,512.000000) scale(0.100000,-0.100000)"
fill="#000000" stroke="none">
<path d="M95 4506 c-37 -16 -70 -52 -84 -89 -7 -18 -11 -166 -11 -418 l0 -389
2560 0 2561 0 -3 404 c-3 391 -4 406 -24 432 -11 15 -33 37 -48 48 l-27 21
-2447 2 c-2024 2 -2452 0 -2477 -11z"/>
<path d="M302 2006 c3 -1300 3 -1305 24 -1332 11 -15 33 -37 48 -48 l27 -21
2159 0 2159 0 27 21 c15 11 37 33 48 48 21 27 21 32 24 1332 l2 1304 -2260 0
-2260 0 2 -1304z m2671 989 c81 -21 132 -50 195 -108 93 -89 142 -201 142
-327 0 -126 -49 -238 -142 -327 -63 -58 -114 -87 -195 -108 -85 -22 -743 -22
-828 1 -74 19 -135 54 -198 113 -183 171 -183 471 0 642 62 58 124 94 193 113
81 22 751 23 833 1z"/>
<path d="M2191 2692 c-55 -27 -76 -64 -76 -132 0 -68 21 -105 76 -132 30 -16
70 -18 369 -18 299 0 339 2 369 18 55 27 76 64 76 132 0 68 -21 105 -76 132
-30 16 -70 18 -369 18 -299 0 -339 -2 -369 -18z"/>
</g>
</svg>
