<?xml version="1.0" standalone="no"?>
<!DOCTYPE svg PUBLIC "-//W3C//DTD SVG 20010904//EN"
 "http://www.w3.org/TR/2001/REC-SVG-20010904/DTD/svg10.dtd">
<svg version="1.0" xmlns="http://www.w3.org/2000/svg"
 width="512.000000pt" height="512.000000pt" viewBox="0 0 512.000000 512.000000"
 preserveAspectRatio="xMidYMid meet">

<g transform="translate(0.000000,512.000000) scale(0.100000,-0.100000)"
fill="#000000" stroke="none">
<path d="M2260 5114 c-264 -40 -495 -220 -594 -463 -14 -35 -28 -79 -32 -97
l-6 -34 -407 0 c-454 0 -483 -3 -602 -66 -132 -70 -239 -208 -274 -355 -9 -42
-15 -116 -15 -212 0 -172 11 -207 78 -245 l40 -22 2111 0 c2097 0 2112 0 2151
20 68 34 80 73 80 247 0 96 -6 170 -15 212 -35 147 -141 285 -273 354 -121 64
-149 67 -603 67 l-407 0 -6 34 c-21 113 -107 256 -214 357 -120 114 -238 173
-392 198 -59 10 -562 13 -620 5z m607 -308 c77 -21 136 -52 192 -102 49 -44
103 -119 116 -161 l6 -23 -621 0 -621 0 6 23 c13 41 67 117 114 160 53 47 120
83 190 102 68 19 548 20 618 1z"/>
<path d="M667 3278 c2 -24 44 -596 93 -1273 98 -1352 93 -1310 173 -1479 69
-143 183 -277 311 -366 72 -49 203 -108 296 -132 l85 -23 935 0 935 0 85 23
c170 45 324 136 441 260 84 88 121 142 170 247 75 161 72 128 169 1470 49 677
91 1249 93 1273 l5 42 -1898 0 -1898 0 5 -42z m2131 -452 c472 -103 819 -449
929 -928 23 -101 23 -373 0 -476 -110 -484 -471 -838 -952 -933 -91 -18 -339
-18 -430 0 -481 95 -849 456 -951 933 -8 40 -18 123 -21 183 -22 438 204 854
587 1081 130 77 278 129 435 154 84 13 316 5 403 -14z"/>
<path d="M2397 2534 c-97 -17 -206 -59 -300 -115 -95 -57 -241 -203 -296 -296
-173 -294 -173 -634 0 -926 56 -94 202 -240 296 -296 292 -173 632 -173 926 0
93 55 239 201 296 296 173 292 173 634 0 926 -57 95 -203 241 -296 296 -194
114 -411 154 -626 115z m-91 -425 c16 -5 79 -60 141 -122 l113 -111 108 106
c124 122 156 142 220 135 103 -11 162 -118 116 -210 -9 -18 -64 -80 -122 -139
l-106 -107 116 -119 c124 -126 138 -152 124 -226 -17 -92 -124 -143 -209 -100
-18 9 -80 64 -139 122 l-107 106 -119 -116 c-94 -93 -126 -118 -155 -123 -117
-22 -204 65 -182 182 5 29 30 61 122 155 l116 118 -116 118 c-123 126 -137
152 -123 226 17 88 115 139 202 105z"/>
</g>
</svg>
