<?xml version="1.0" standalone="no"?>
<!DOCTYPE svg PUBLIC "-//W3C//DTD SVG 20010904//EN"
 "http://www.w3.org/TR/2001/REC-SVG-20010904/DTD/svg10.dtd">
<svg version="1.0" xmlns="http://www.w3.org/2000/svg"
 width="512.000000pt" height="512.000000pt" viewBox="0 0 512.000000 512.000000"
 preserveAspectRatio="xMidYMid meet">

<g transform="translate(0.000000,512.000000) scale(0.100000,-0.100000)"
fill="#000000" stroke="none">
<path d="M345 5106 c-84 -21 -147 -57 -211 -121 -65 -65 -105 -136 -123 -223
-16 -76 -16 -4329 0 -4404 37 -172 175 -310 347 -347 75 -16 3108 -16 3184 0
170 36 311 178 347 347 7 36 11 286 11 779 l0 727 -237 -235 -238 -235 -415
-216 c-228 -119 -439 -224 -469 -232 -188 -55 -409 34 -503 201 l-30 53 -595
0 -595 0 -40 22 c-45 25 -78 80 -78 128 0 48 33 103 78 128 l40 22 583 0 584
1 47 97 c26 53 94 188 153 300 l106 202 -737 0 -736 0 -40 22 c-101 57 -101
199 0 256 l40 22 818 0 819 0 300 300 300 300 -1119 0 -1118 0 -40 22 c-101
57 -101 199 0 256 l40 22 1268 0 1269 0 260 260 260 260 -579 0 -578 0 -40 22
c-24 14 -48 38 -59 60 -18 35 -19 68 -19 628 l0 590 -1102 -1 c-847 -1 -1115
-4 -1153 -13z"/>
<path d="M2900 4575 l0 -455 457 0 458 0 -455 455 c-250 250 -456 455 -457
455 -2 0 -3 -205 -3 -455z"/>
<path d="M4652 4069 c-90 -15 -154 -53 -259 -154 l-98 -94 283 -283 283 -283
103 105 c115 118 143 170 153 291 21 250 -213 461 -465 418z"/>
<path d="M3442 2967 l-632 -632 283 -283 282 -282 635 635 635 635 -280 280
c-154 154 -282 280 -285 280 -3 0 -290 -285 -638 -633z"/>
<path d="M2451 1758 c-98 -188 -175 -347 -178 -367 -6 -50 31 -119 77 -143 71
-37 87 -31 439 153 179 94 329 174 333 177 4 4 -106 121 -245 260 l-252 252
-174 -332z"/>
</g>
</svg>
